<?xml version="1.0" standalone="no"?>
<!DOCTYPE svg PUBLIC "-//W3C//DTD SVG 20010904//EN"
 "http://www.w3.org/TR/2001/REC-SVG-20010904/DTD/svg10.dtd">
<svg version="1.0" xmlns="http://www.w3.org/2000/svg"
 width="100%" height="100%" viewBox="0 0 73.000000 30.000000"
 preserveAspectRatio="xMidYMid meet">
<metadata>
Created by potrace 1.16, written by Peter Selinger 2001-2019
</metadata>
<g transform="translate(0.000000,30.000000) scale(0.011283,-0.011236)"
fill="#ffff" stroke="none">
<path d="M680 1950 l0 -550 105 0 c93 0 105 2 105 18 13 444 18 521 38 554 41
65 123 92 198 63 78 -30 75 -8 93 -612 1 -22 4 -23 108 -23 l106 0 -6 238
c-11 383 -26 460 -101 517 -36 27 -120 55 -168 55 -64 0 -130 -23 -188 -66
-33 -24 -61 -42 -61 -39 -1 3 -3 10 -4 15 -1 6 -3 93 -4 195 l-1 185 -110 0
-110 0 0 -550z"/>
<path d="M260 2320 l0 -120 -70 0 -70 0 0 -75 0 -75 70 0 70 0 0 -325 0 -325
105 0 105 0 0 325 0 325 80 0 80 0 0 75 0 75 -80 0 -80 0 0 120 0 120 -105 0
-105 0 0 -120z"/>
<path d="M1791 2194 c-94 -33 -179 -110 -230 -208 -30 -56 -31 -62 -31 -190 0
-128 1 -135 30 -194 40 -79 130 -164 202 -188 73 -25 233 -26 305 -1 78 27
193 150 193 207 0 18 -6 20 -76 20 -72 0 -78 -2 -117 -35 -118 -101 -305 -59
-332 75 -3 19 -9 43 -11 53 -5 16 13 17 285 17 l291 0 0 23 c0 37 -27 148 -50
209 -26 70 -97 151 -160 183 -85 43 -221 56 -299 29z m195 -165 c31 -15 48
-32 63 -63 38 -78 43 -76 -149 -76 l-170 0 6 28 c26 110 144 163 250 111z"/>
<path d="M2736 2185 c-27 -13 -71 -45 -97 -71 l-49 -48 0 62 0 63 -92 -3 -92
-3 -8 -36 c-4 -20 -8 -196 -10 -392 l-3 -357 103 0 c56 0 102 3 102 8 2 149
14 383 21 432 18 116 61 156 185 171 43 6 82 13 87 16 10 6 4 135 -8 166 -10
25 -79 22 -139 -8z"/>
<path d="M3597 2186 c-9 -14 -17 -30 -17 -36 0 -6 -24 2 -52 17 -50 26 -62 28
-208 31 -138 3 -161 1 -211 -17 -71 -27 -131 -78 -158 -136 -39 -84 -26 -95
114 -95 59 0 60 1 80 37 32 58 65 77 137 77 73 0 102 -13 123 -54 21 -41 19
-73 -7 -97 -30 -26 -36 -28 -180 -54 -245 -43 -308 -92 -308 -239 0 -74 19
-123 67 -172 45 -46 111 -62 228 -56 68 4 91 10 152 41 75 38 83 37 83 -14 0
-16 7 -19 53 -19 28 0 76 3 104 6 l53 7 -5 36 c-2 20 -7 142 -10 271 -4 129
-10 269 -14 310 -4 41 -8 76 -7 77 1 0 33 -9 71 -21 l70 -22 3 -332 2 -333 98
3 97 3 6 60 c4 33 9 148 12 255 6 204 17 264 46 256 9 -2 71 -21 139 -42 l122
-37 0 -249 0 -248 110 0 110 0 0 210 c0 193 1 210 18 210 31 -1 48 -24 61 -85
29 -132 118 -255 224 -309 54 -27 60 -28 184 -24 145 3 162 9 257 85 32 27 65
53 73 58 17 13 164 -38 209 -71 61 -47 169 -80 319 -98 22 -3 96 -21 165 -42
258 -76 268 -78 296 -60 57 38 25 62 -189 140 l-47 18 26 31 c90 107 98 241
18 321 -38 37 -89 59 -248 103 -99 28 -138 43 -158 64 -34 34 -35 53 -3 84 21
22 33 25 94 25 87 0 117 -13 142 -62 l20 -39 87 3 c86 3 87 3 90 30 6 53 -59
137 -141 180 -38 21 -55 23 -187 23 -166 0 -202 -9 -263 -64 -52 -47 -67 -85
-67 -170 0 -60 3 -74 26 -101 36 -43 100 -73 245 -115 67 -20 132 -41 143 -47
60 -30 80 -74 55 -120 -25 -46 -141 -63 -219 -32 -32 13 -46 27 -66 67 l-26
50 -86 -8 c-48 -4 -105 -8 -127 -9 l-40 -1 -5 140 c-6 163 -16 191 -108 287
-181 190 -487 162 -633 -58 -14 -21 -34 -52 -43 -68 -15 -24 -22 -27 -48 -22
-43 8 -56 22 -64 65 -11 57 -32 98 -71 142 -48 53 -80 69 -157 76 -83 8 -152
-10 -225 -57 -33 -21 -62 -36 -65 -33 -3 4 -6 24 -6 45 l0 38 -132 -2 c-73 -2
-151 1 -174 5 -37 8 -42 7 -57 -17z m-182 -478 c-9 -104 -34 -143 -104 -167
-67 -22 -162 -6 -182 31 -7 12 -12 39 -12 60 0 70 61 107 203 123 30 3 62 10
70 15 28 18 31 10 25 -62z"/>
<path d="M5635 1241 c-37 -6 -40 -9 -47 -46 -4 -22 -7 -73 -7 -112 l-1 -73
-65 0 -65 0 0 -75 0 -75 65 0 65 0 0 -325 0 -325 110 0 110 0 0 325 0 325 80
0 80 0 0 75 0 75 -80 0 -80 0 0 120 0 120 -62 -1 c-35 -1 -81 -5 -103 -8z"/>
<path d="M4124 1011 c-32 -8 -81 -38 -121 -74 -28 -24 -43 -15 -43 28 l0 33
-92 4 c-51 2 -96 3 -100 1 -5 -3 -8 -182 -8 -399 l0 -394 110 0 110 0 1 243
c0 133 3 255 5 271 13 80 68 126 149 126 63 0 93 -16 119 -60 20 -33 21 -54
24 -308 l3 -272 111 0 110 0 -6 198 c-10 325 -17 425 -33 462 -17 41 -76 105
-117 127 -34 18 -174 27 -222 14z"/>
<path d="M4900 1007 c-86 -19 -142 -52 -209 -122 -90 -93 -101 -123 -101 -279
0 -156 10 -184 107 -286 91 -97 134 -114 288 -114 118 0 121 0 185 34 73 39
144 119 186 209 24 50 26 62 22 175 -4 132 -10 151 -72 225 -112 134 -258 191
-406 158z"/>
</g>
</svg>
